<svg width="20" height="20" viewBox="0 0 20 20" fill="none" xmlns="http://www.w3.org/2000/svg">
<path fill-rule="evenodd" clip-rule="evenodd" d="M10 18C8.18109 18.0029 6.41596 17.3832 4.998 16.244L5 16.245V15.562C5 13.768 6.492 12.312 8.333 12.312H11.667C13.507 12.312 15 13.768 15 15.562V16.245C13.5824 17.3834 11.8181 18.0027 10 18ZM0 10C0 4.477 4.477 0 10 0C15.523 0 20 4.477 20 10C20 15.5 15.56 19.963 10.068 20H9.93C4.438 19.962 0 15.5 0 10ZM10 5C8.16 5 6.667 6.455 6.667 8.25C6.667 10.045 8.159 11.5 10 11.5C11.84 11.5 13.333 10.045 13.333 8.25C13.333 6.455 11.841 5 10 5Z" fill="black"/>
</svg>
